<svg xmlns="http://www.w3.org/2000/svg" viewBox="0 0 32 32">
  <rect x="4" y="12" width="8" height="18" rx="1" fill="#38bdf8"/>
  <rect x="14" y="4" width="10" height="26" rx="1" fill="#2dd4bf"/>
  <rect x="6" y="15" width="2" height="2" rx=".3" fill="#0f172a"/>
  <rect x="6" y="20" width="2" height="2" rx=".3" fill="#0f172a"/>
  <rect x="6" y="25" width="2" height="2" rx=".3" fill="#0f172a"/>
  <rect x="16" y="7" width="2" height="2" rx=".3" fill="#0f172a"/>
  <rect x="20" y="7" width="2" height="2" rx=".3" fill="#0f172a"/>
  <rect x="16" y="12" width="2" height="2" rx=".3" fill="#0f172a"/>
  <rect x="20" y="12" width="2" height="2" rx=".3" fill="#0f172a"/>
  <rect x="16" y="17" width="2" height="2" rx=".3" fill="#0f172a"/>
  <rect x="20" y="17" width="2" height="2" rx=".3" fill="#0f172a"/>
  <rect x="16" y="22" width="2" height="2" rx=".3" fill="#0f172a"/>
  <rect x="20" y="22" width="2" height="2" rx=".3" fill="#0f172a"/>
  <rect x="26" y="16" width="4" height="14" rx=".5" fill="#38bdf8" opacity=".6"/>
</svg>
